<svg width="56" height="56" viewBox="0 0 56 56" fill="none" xmlns="http://www.w3.org/2000/svg">
<g id="add_circle">
<mask id="mask0_5_129" style="mask-type:alpha" maskUnits="userSpaceOnUse" x="0" y="0" width="56" height="56">
<rect id="Bounding box" width="55.1098" height="55.1098" fill="#D9D9D9"/>
</mask>
<g mask="url(#mask0_5_129)">
<path id="add_circle_2" d="M25.2587 39.0361H29.8512V29.8511H39.0361V25.2586H29.8512V16.0737H25.2587V25.2586H16.0737V29.8511H25.2587V39.0361ZM27.5549 50.5173C24.3785 50.5173 21.3934 49.9145 18.5996 48.709C15.8058 47.5035 13.3757 45.8674 11.309 43.8008C9.24242 41.7342 7.60635 39.304 6.40082 36.5102C5.19529 33.7165 4.59253 30.7313 4.59253 27.5549C4.59253 24.3784 5.19529 21.3933 6.40082 18.5995C7.60635 15.8058 9.24242 13.3756 11.309 11.309C13.3757 9.24236 15.8058 7.60629 18.5996 6.40076C21.3934 5.19523 24.3785 4.59247 27.5549 4.59247C30.7314 4.59247 33.7165 5.19523 36.5103 6.40076C39.304 7.60629 41.7342 9.24236 43.8008 11.309C45.8675 13.3756 47.5035 15.8058 48.7091 18.5995C49.9146 21.3933 50.5174 24.3784 50.5174 27.5549C50.5174 30.7313 49.9146 33.7165 48.7091 36.5102C47.5035 39.304 45.8675 41.7342 43.8008 43.8008C41.7342 45.8674 39.304 47.5035 36.5103 48.709C33.7165 49.9145 30.7314 50.5173 27.5549 50.5173ZM27.5549 45.9248C32.6832 45.9248 37.0269 44.1452 40.5861 40.5861C44.1453 37.0269 45.9249 32.6832 45.9249 27.5549C45.9249 22.4266 44.1453 18.0829 40.5861 14.5237C37.0269 10.9645 32.6832 9.18495 27.5549 9.18495C22.4267 9.18495 18.0829 10.9645 14.5238 14.5237C10.9646 18.0829 9.18501 22.4266 9.18501 27.5549C9.18501 32.6832 10.9646 37.0269 14.5238 40.5861C18.0829 44.1452 22.4267 45.9248 27.5549 45.9248Z" fill="#4870FF"/>
</g>
</g>
</svg>
