<svg width="55" height="55" viewBox="0 0 55 55" fill="none" xmlns="http://www.w3.org/2000/svg">
<mask id="mask0_5_150" style="mask-type:alpha" maskUnits="userSpaceOnUse" x="0" y="0" width="55" height="55">
<rect width="54.6145" height="54.6145" fill="#D9D9D9"/>
</mask>
<g mask="url(#mask0_5_150)">
<path d="M27.3073 36.4097C30.1518 36.4097 32.5696 35.4141 34.5608 33.4229C36.5519 31.4318 37.5475 29.014 37.5475 26.1694C37.5475 23.3249 36.5519 20.9071 34.5608 18.916C32.5696 16.9248 30.1518 15.9292 27.3073 15.9292C24.4628 15.9292 22.0449 16.9248 20.0538 18.916C18.0626 20.9071 17.0671 23.3249 17.0671 26.1694C17.0671 29.014 18.0626 31.4318 20.0538 33.4229C22.0449 35.4141 24.4628 36.4097 27.3073 36.4097ZM27.3073 32.3136C25.6006 32.3136 24.1499 31.7162 22.9552 30.5215C21.7605 29.3269 21.1632 27.8762 21.1632 26.1694C21.1632 24.4627 21.7605 23.012 22.9552 21.8174C24.1499 20.6227 25.6006 20.0253 27.3073 20.0253C29.014 20.0253 30.4647 20.6227 31.6594 21.8174C32.8541 23.012 33.4514 24.4627 33.4514 26.1694C33.4514 27.8762 32.8541 29.3269 31.6594 30.5215C30.4647 31.7162 29.014 32.3136 27.3073 32.3136ZM27.3073 43.2365C21.77 43.2365 16.7257 41.691 12.1745 38.5999C7.6233 35.5089 4.32368 31.3654 2.27563 26.1694C4.32368 20.9735 7.6233 16.83 12.1745 13.739C16.7257 10.6479 21.77 9.10242 27.3073 9.10242C32.8446 9.10242 37.8888 10.6479 42.44 13.739C46.9913 16.83 50.2909 20.9735 52.3389 26.1694C50.2909 31.3654 46.9913 35.5089 42.44 38.5999C37.8888 41.691 32.8446 43.2365 27.3073 43.2365ZM27.3073 38.6853C31.593 38.6853 35.5279 37.557 39.112 35.3003C42.6961 33.0437 45.4363 30 47.3326 26.1694C45.4363 22.3388 42.6961 19.2952 39.112 17.0386C35.5279 14.7819 31.593 13.6536 27.3073 13.6536C23.0216 13.6536 19.0867 14.7819 15.5026 17.0386C11.9185 19.2952 9.1783 22.3388 7.28196 26.1694C9.1783 30 11.9185 33.0437 15.5026 35.3003C19.0867 37.557 23.0216 38.6853 27.3073 38.6853Z" fill="white"/>
</g>
</svg>
