<svg width="56" height="56" viewBox="0 0 56 56" fill="none" xmlns="http://www.w3.org/2000/svg">
<g id="support_agent">
<mask id="mask0_5_175" style="mask-type:alpha" maskUnits="userSpaceOnUse" x="0" y="0" width="56" height="56">
<rect id="Bounding box" width="55.5361" height="55.5361" fill="#D9D9D9"/>
</mask>
<g mask="url(#mask0_5_175)">
<path id="support_agent_2" d="M25.454 48.5941V43.9661H43.966V27.5367C43.966 23.0244 42.3944 19.1966 39.2512 16.0534C36.108 12.9102 32.2803 11.3386 27.768 11.3386C23.2557 11.3386 19.4279 12.9102 16.2847 16.0534C13.1415 19.1966 11.5699 23.0244 11.5699 27.5367V41.6521H9.25594C7.98324 41.6521 6.89373 41.1989 5.98741 40.2926C5.08109 39.3863 4.62793 38.2968 4.62793 37.0241V32.3961C4.62793 31.5862 4.83041 30.8245 5.23536 30.111C5.64031 29.3975 6.20917 28.8287 6.94194 28.4044L7.11549 25.3384C7.42402 22.7158 8.18571 20.2861 9.40057 18.0492C10.6154 15.8124 12.1388 13.8648 13.9707 12.2064C15.8026 10.548 17.9045 9.25602 20.2764 8.33042C22.6482 7.40482 25.1454 6.94202 27.768 6.94202C30.3905 6.94202 32.8781 7.40482 35.2307 8.33042C37.5832 9.25602 39.6851 10.5384 41.5363 12.1775C43.3875 13.8165 44.9109 15.7545 46.1065 17.9914C47.302 20.2283 48.0734 22.658 48.4205 25.2805L48.594 28.2887C49.3268 28.6358 49.8957 29.1565 50.3006 29.8507C50.7056 30.5449 50.908 31.2776 50.908 32.049V37.3712C50.908 38.1425 50.7056 38.8753 50.3006 39.5695C49.8957 40.2637 49.3268 40.7844 48.594 41.1315V43.9661C48.594 45.2388 48.1409 46.3283 47.2346 47.2346C46.3282 48.141 45.2387 48.5941 43.966 48.5941H25.454ZM20.826 32.3961C20.1703 32.3961 19.6208 32.1743 19.1772 31.7308C18.7337 31.2873 18.512 30.7377 18.512 30.0821C18.512 29.4264 18.7337 28.8769 19.1772 28.4333C19.6208 27.9898 20.1703 27.7681 20.826 27.7681C21.4816 27.7681 22.0312 27.9898 22.4747 28.4333C22.9182 28.8769 23.14 29.4264 23.14 30.0821C23.14 30.7377 22.9182 31.2873 22.4747 31.7308C22.0312 32.1743 21.4816 32.3961 20.826 32.3961ZM34.71 32.3961C34.0544 32.3961 33.5048 32.1743 33.0613 31.7308C32.6178 31.2873 32.396 30.7377 32.396 30.0821C32.396 29.4264 32.6178 28.8769 33.0613 28.4333C33.5048 27.9898 34.0544 27.7681 34.71 27.7681C35.3656 27.7681 35.9152 27.9898 36.3587 28.4333C36.8022 28.8769 37.024 29.4264 37.024 30.0821C37.024 30.7377 36.8022 31.2873 36.3587 31.7308C35.9152 32.1743 35.3656 32.3961 34.71 32.3961ZM13.9418 28.8094C13.6718 24.7213 14.906 21.2117 17.6442 18.2806C20.3824 15.3496 23.7956 13.884 27.8837 13.884C31.3161 13.884 34.334 14.9735 36.9372 17.1526C39.5405 19.3316 41.1121 22.118 41.652 25.5119C38.1424 25.4733 34.9125 24.5285 31.9621 22.6773C29.0118 20.8261 26.746 18.3192 25.1647 15.1567C24.5477 18.2421 23.246 20.99 21.2598 23.4004C19.2737 25.8108 16.8343 27.6138 13.9418 28.8094Z" fill="#021996"/>
</g>
</g>
</svg>
